<?xml version="1.0" standalone="no"?>
<!DOCTYPE svg PUBLIC "-//W3C//DTD SVG 20010904//EN"
 "http://www.w3.org/TR/2001/REC-SVG-20010904/DTD/svg10.dtd">
<svg version="1.0" xmlns="http://www.w3.org/2000/svg"
 width="700.000000pt" height="677.000000pt" viewBox="0 0 700.000000 677.000000"
 preserveAspectRatio="xMidYMid meet">

<g transform="translate(0.000000,677.000000) scale(0.100000,-0.100000)"
fill="#000000" stroke="none">
<path d="M1845 5980 c-174 -25 -313 -95 -440 -224 -104 -104 -164 -208 -211
-362 -25 -82 -28 -103 -28 -269 -1 -205 10 -277 73 -462 l38 -112 -106 -60
c-216 -121 -426 -305 -540 -475 -317 -470 -284 -1042 81 -1392 139 -133 290
-214 508 -271 117 -31 355 -42 495 -24 249 33 484 122 732 278 l103 64 33 -25
c52 -40 101 -56 169 -56 103 1 197 57 219 131 11 37 10 42 -26 101 -21 35 -46
73 -56 86 -17 22 -16 24 123 197 156 195 203 240 300 290 111 55 196 70 398
69 142 -1 195 -5 280 -24 143 -31 184 -35 197 -18 6 7 45 99 86 203 89 228
285 704 357 869 47 108 50 121 39 148 -15 37 -44 52 -163 82 -154 40 -292 52
-443 36 -211 -21 -192 -26 -224 53 -40 97 -111 199 -204 292 -143 144 -295
245 -371 245 -32 0 -44 -7 -78 -44 -51 -55 -175 -251 -317 -499 -140 -245
-379 -720 -379 -753 0 -43 17 -61 106 -115 48 -28 113 -77 146 -108 71 -66 81
-105 53 -191 -21 -65 -99 -181 -160 -240 l-47 -45 -29 35 c-59 69 -650 960
-649 978 1 4 45 33 99 64 403 233 622 549 621 896 -1 192 -56 331 -184 457
-93 93 -182 145 -300 175 -91 23 -220 32 -301 20z m190 -439 c88 -40 155 -150
155 -255 -1 -174 -143 -369 -362 -493 -110 -63 -103 -64 -126 9 -57 173 -77
361 -52 469 50 211 233 340 385 270z m1376 -493 c91 -60 218 -191 256 -263 38
-72 63 -156 62 -204 0 -45 -475 -994 -499 -999 -10 -2 -25 19 -44 65 -81 190
-181 319 -361 466 l-29 24 17 44 c36 92 449 852 484 892 24 26 44 21 114 -25z
m-1851 -1053 c133 -208 369 -559 510 -760 71 -102 130 -189 130 -193 0 -17
-190 -117 -285 -150 -141 -48 -187 -56 -325 -56 -115 -1 -146 3 -210 22 -163
52 -266 123 -338 234 -65 100 -85 173 -84 303 1 216 66 369 222 525 93 94 277
228 290 213 4 -5 45 -66 90 -138z"/>
<path d="M5650 3010 c-20 -20 -20 -30 -18 -740 2 -574 6 -722 16 -732 9 -9 50
-13 143 -13 118 0 132 2 145 19 11 16 14 65 14 235 l0 214 98 -144 c142 -207
221 -313 240 -321 21 -8 285 -10 306 -2 26 10 19 36 -27 99 -70 97 -337 492
-337 500 0 4 83 99 185 211 102 113 185 209 185 214 0 6 -12 15 -26 20 -33 13
-265 13 -298 0 -14 -5 -92 -86 -173 -179 l-148 -170 -2 387 c-3 465 13 422
-164 422 -106 0 -121 -2 -139 -20z"/>
<path d="M3277 2993 c-4 -3 -7 -331 -7 -728 0 -633 2 -724 15 -735 22 -18 570
-7 675 13 173 34 279 106 336 229 26 57 29 73 29 168 0 93 -3 111 -27 162 -32
70 -97 135 -166 167 l-52 24 49 33 c147 99 195 279 118 447 -49 108 -163 187
-306 213 -80 14 -651 20 -664 7z m594 -269 c95 -56 115 -187 38 -263 -41 -41
-83 -51 -226 -51 l-123 0 0 163 c0 90 3 167 8 171 4 5 66 6 138 4 107 -4 137
-8 165 -24z m11 -594 c134 -38 174 -214 69 -303 -46 -39 -90 -47 -248 -47
l-143 0 0 180 0 180 143 0 c78 0 159 -5 179 -10z"/>
<path d="M4826 2589 c-133 -31 -273 -145 -335 -272 -106 -219 -65 -495 98
-658 105 -105 219 -149 384 -149 304 0 527 230 527 545 0 256 -156 470 -385
530 -65 16 -225 19 -289 4z m239 -267 c74 -36 117 -101 135 -203 21 -121 -13
-236 -90 -301 -121 -105 -294 -59 -360 95 -44 100 -27 262 35 343 63 82 188
112 280 66z"/>
</g>
</svg>
